<svg width="2006" height="464" viewBox="0 0 2006 464" fill="none" xmlns="http://www.w3.org/2000/svg">
<path d="M538.628 315.62V170.715H599.724C604.423 170.715 609.188 171.302 614.018 172.477C618.979 173.521 623.483 175.741 627.53 179.135C631.707 182.398 635.036 187.359 637.516 194.017C640.127 200.675 641.433 209.487 641.433 220.452C641.433 231.549 640.127 240.491 637.516 247.28C635.036 253.937 631.772 259.029 627.726 262.553C623.679 266.078 619.305 268.428 614.606 269.603C609.906 270.778 605.337 271.365 600.898 271.365C597.765 271.365 593.98 271.169 589.541 270.778C585.233 270.386 581.056 269.929 577.009 269.407C572.962 268.885 569.829 268.493 567.609 268.232V315.62H538.628ZM567.609 245.321H596.395C601.486 245.321 605.402 243.428 608.144 239.643C610.885 235.857 612.256 229.525 612.256 220.648C612.256 211.902 610.82 205.766 607.948 202.241C605.206 198.586 601.551 196.758 596.982 196.758H567.609V245.321ZM658.879 315.62V210.466H681.202L687.86 226.523C691.646 221.693 695.889 217.58 700.588 214.186C705.419 210.792 711.097 209.095 717.625 209.095C719.061 209.095 720.497 209.16 721.933 209.291C723.499 209.421 724.935 209.682 726.241 210.074V239.838C724.152 239.577 721.998 239.381 719.779 239.251C717.69 238.99 715.732 238.859 713.904 238.859C708.16 238.859 703.265 239.838 699.218 241.797C695.171 243.624 691.385 246.431 687.86 250.217V315.62H658.879ZM786.719 316.599C775.101 316.599 765.767 314.967 758.717 311.704C751.668 308.31 746.511 302.696 743.248 294.863C740.115 287.031 738.548 276.326 738.548 262.749C738.548 248.389 740.18 237.358 743.443 229.656C746.707 221.823 751.864 216.405 758.913 213.403C765.963 210.4 775.231 208.899 786.719 208.899C798.338 208.899 807.672 210.466 814.721 213.599C821.901 216.732 827.058 222.215 830.191 230.047C833.455 237.88 835.086 248.781 835.086 262.749C835.086 276.718 833.52 287.618 830.387 295.451C827.254 303.284 822.162 308.766 815.113 311.9C808.064 315.033 798.599 316.599 786.719 316.599ZM786.719 293.493C791.288 293.493 795.009 292.84 797.881 291.534C800.753 290.229 802.842 287.422 804.147 283.114C805.453 278.676 806.105 271.887 806.105 262.749C806.105 253.48 805.453 246.692 804.147 242.384C802.842 238.076 800.753 235.269 797.881 233.964C795.009 232.658 791.288 232.006 786.719 232.006C782.15 232.006 778.43 232.658 775.558 233.964C772.816 235.269 770.793 238.076 769.487 242.384C768.182 246.692 767.529 253.48 767.529 262.749C767.529 271.887 768.182 278.676 769.487 283.114C770.793 287.422 772.816 290.229 775.558 291.534C778.43 292.84 782.15 293.493 786.719 293.493ZM854.315 362.029V210.466H878.596L883.296 220.452C886.951 217.58 891.194 214.969 896.024 212.62C900.985 210.139 906.468 208.899 912.473 208.899C925.528 208.899 934.992 213.729 940.867 223.39C946.741 233.05 949.678 246.3 949.678 263.141C949.678 274.368 948.569 284.028 946.35 292.122C944.13 300.216 940.279 306.417 934.796 310.725C929.444 314.902 922.003 316.991 912.473 316.991C907.512 316.991 902.421 316.403 897.199 315.228C892.108 314.054 887.474 312.356 883.296 310.137V362.029H854.315ZM903.074 293.101C906.076 293.101 908.883 292.318 911.494 290.751C914.235 289.054 916.455 286.052 918.152 281.744C919.849 277.436 920.697 271.235 920.697 263.141C920.697 251.392 919 243.298 915.606 238.859C912.342 234.421 908.165 232.201 903.074 232.201C899.027 232.201 895.306 232.854 891.912 234.16C888.518 235.465 885.646 236.771 883.296 238.076V288.01C885.907 289.576 888.975 290.816 892.5 291.73C896.024 292.644 899.549 293.101 903.074 293.101ZM1013.12 316.599C1001.5 316.599 992.229 315.098 985.31 312.095C978.391 308.962 973.365 303.545 970.232 295.842C967.229 288.01 965.728 277.109 965.728 263.141C965.728 248.911 967.164 237.88 970.036 230.047C972.908 222.215 977.738 216.732 984.526 213.599C991.315 210.466 1000.52 208.899 1012.14 208.899C1022.45 208.899 1030.74 209.943 1037.01 212.032C1043.4 214.121 1047.97 217.776 1050.71 222.998C1053.59 228.22 1055.02 235.596 1055.02 245.126C1055.02 255.83 1051.95 263.206 1045.82 267.253C1039.68 271.3 1031.39 273.323 1020.95 273.323H994.513C994.644 278.676 995.427 282.918 996.863 286.052C998.299 289.185 1000.84 291.469 1004.5 292.905C1008.29 294.341 1013.7 295.059 1020.75 295.059H1051.5V312.095C1046.41 313.14 1040.79 314.184 1034.66 315.228C1028.65 316.142 1021.47 316.599 1013.12 316.599ZM994.122 256.091H1018.01C1021.93 256.091 1024.8 255.308 1026.63 253.742C1028.46 252.044 1029.37 249.238 1029.37 245.321C1029.37 239.577 1028 235.596 1025.26 233.376C1022.65 231.027 1018.27 229.852 1012.14 229.852C1005.48 229.852 1000.78 231.679 998.038 235.335C995.427 238.859 994.122 245.778 994.122 256.091ZM1074.04 315.62V210.466H1096.36L1103.02 226.523C1106.8 221.693 1111.05 217.58 1115.75 214.186C1120.58 210.792 1126.26 209.095 1132.78 209.095C1134.22 209.095 1135.65 209.16 1137.09 209.291C1138.66 209.421 1140.09 209.682 1141.4 210.074V239.838C1139.31 239.577 1137.16 239.381 1134.94 239.251C1132.85 238.99 1130.89 238.859 1129.06 238.859C1123.32 238.859 1118.42 239.838 1114.38 241.797C1110.33 243.624 1106.54 246.431 1103.02 250.217V315.62H1074.04ZM1188.56 315.62V196.758H1148.81V170.715H1257.49V196.758H1217.54V315.62H1188.56ZM1255.65 315.62V294.668L1305.19 233.768H1253.69V210.466H1338.87V231.418L1289.13 292.318H1338.87V315.62H1255.65ZM1360.19 315.816C1357.58 315.816 1356.28 314.51 1356.28 311.9V291.926C1356.28 289.185 1357.58 287.814 1360.19 287.814H1377.03C1379.91 287.814 1381.34 289.185 1381.34 291.926V311.9C1381.34 313.466 1380.88 314.51 1379.97 315.033C1379.19 315.555 1378.21 315.816 1377.03 315.816H1360.19ZM1443.69 316.795C1435.07 316.795 1427.43 315.228 1420.77 312.095C1414.25 308.962 1409.09 303.545 1405.3 295.842C1401.52 288.14 1399.63 277.37 1399.63 263.532C1399.63 249.172 1401.39 238.076 1404.91 230.243C1408.44 222.28 1413.53 216.732 1420.19 213.599C1426.84 210.466 1434.94 208.899 1444.47 208.899C1450.87 208.899 1456.94 209.291 1462.68 210.074C1468.55 210.727 1474.69 211.967 1481.09 213.795V230.439H1453.48C1447.47 230.439 1442.64 231.353 1438.99 233.181C1435.33 234.878 1432.65 238.141 1430.96 242.972C1429.39 247.671 1428.61 254.46 1428.61 263.337C1428.61 272.214 1429.39 278.937 1430.96 283.506C1432.65 287.944 1435.33 290.947 1438.99 292.514C1442.77 294.08 1447.73 294.863 1453.87 294.863H1482.65V311.312C1477.82 312.879 1471.82 314.184 1464.64 315.228C1457.46 316.273 1450.47 316.795 1443.69 316.795ZM1543.79 316.599C1532.18 316.599 1522.84 314.967 1515.79 311.704C1508.74 308.31 1503.59 302.696 1500.32 294.863C1497.19 287.031 1495.62 276.326 1495.62 262.749C1495.62 248.389 1497.25 237.358 1500.52 229.656C1503.78 221.823 1508.94 216.405 1515.99 213.403C1523.04 210.4 1532.31 208.899 1543.79 208.899C1555.41 208.899 1564.75 210.466 1571.8 213.599C1578.98 216.732 1584.13 222.215 1587.27 230.047C1590.53 237.88 1592.16 248.781 1592.16 262.749C1592.16 276.718 1590.6 287.618 1587.46 295.451C1584.33 303.284 1579.24 308.766 1572.19 311.9C1565.14 315.033 1555.67 316.599 1543.79 316.599ZM1543.79 293.493C1548.36 293.493 1552.08 292.84 1554.96 291.534C1557.83 290.229 1559.92 287.422 1561.22 283.114C1562.53 278.676 1563.18 271.887 1563.18 262.749C1563.18 253.48 1562.53 246.692 1561.22 242.384C1559.92 238.076 1557.83 235.269 1554.96 233.964C1552.08 232.658 1548.36 232.006 1543.79 232.006C1539.23 232.006 1535.5 232.658 1532.63 233.964C1529.89 235.269 1527.87 238.076 1526.56 242.384C1525.26 246.692 1524.6 253.48 1524.6 262.749C1524.6 271.887 1525.26 278.676 1526.56 283.114C1527.87 287.422 1529.89 290.229 1532.63 291.534C1535.5 292.84 1539.23 293.493 1543.79 293.493ZM1611.39 315.62V210.466H1635.28L1640.37 221.236C1644.94 217.841 1649.97 214.904 1655.45 212.424C1660.93 209.943 1667.59 208.703 1675.42 208.703C1682.08 208.703 1687.56 210.139 1691.87 213.011C1696.18 215.753 1699.51 219.277 1701.86 223.585C1704.86 221.366 1708.32 219.147 1712.24 216.928C1716.28 214.578 1720.59 212.62 1725.16 211.053C1729.73 209.487 1734.23 208.703 1738.67 208.703C1747.16 208.703 1753.82 210.335 1758.65 213.599C1763.48 216.732 1766.87 221.236 1768.83 227.11C1770.92 232.854 1771.96 239.643 1771.96 247.475V315.62H1742.98V250.021C1742.98 244.93 1741.61 241.144 1738.87 238.664C1736.13 236.053 1732.47 234.747 1727.9 234.747C1723.99 234.747 1720 235.596 1715.96 237.293C1712.04 238.859 1708.52 240.752 1705.38 242.972C1705.91 245.582 1706.17 248.128 1706.17 250.608V315.62H1677.19V250.021C1677.19 244.93 1675.81 241.144 1673.07 238.664C1670.33 236.053 1666.68 234.747 1662.11 234.747C1657.93 234.747 1654.01 235.465 1650.36 236.901C1646.83 238.337 1643.5 240.23 1640.37 242.58V315.62H1611.39Z" fill="#40537C"/>
<path d="M542.836 105.396L552.592 58.6319H535.276L536.536 52.6199H578.08L576.82 58.6319H559.648L549.892 105.396H542.836ZM573.616 105.396L584.632 52.6199H591.148L586.936 72.8879C589.36 70.5359 591.616 68.8559 593.704 67.8479C595.792 66.8159 597.94 66.2999 600.148 66.2999C603.316 66.2999 605.776 67.1399 607.528 68.8199C609.28 70.4759 610.156 72.6719 610.156 75.4078C610.156 76.7518 609.772 79.2238 609.004 82.8238L604.288 105.396H597.772L602.632 82.2478C603.328 78.8878 603.676 76.7758 603.676 75.9118C603.676 74.6639 603.244 73.6439 602.38 72.8519C601.516 72.0599 600.268 71.6639 598.636 71.6639C596.284 71.6639 594.04 72.2879 591.904 73.5359C589.768 74.7599 588.088 76.4518 586.864 78.6118C585.664 80.7478 584.56 84.2038 583.552 88.9798L580.132 105.396H573.616ZM642.735 92.3998L649.071 93.0478C648.159 96.1918 646.059 99.1798 642.771 102.012C639.507 104.844 635.607 106.26 631.071 106.26C628.239 106.26 625.636 105.612 623.26 104.316C620.908 102.996 619.108 101.088 617.86 98.5918C616.636 96.0958 616.024 93.2518 616.024 90.0598C616.024 85.8838 616.984 81.8398 618.904 77.9278C620.848 73.9919 623.356 71.0759 626.428 69.1799C629.499 67.2599 632.823 66.2999 636.399 66.2999C640.959 66.2999 644.595 67.7159 647.307 70.5479C650.043 73.3799 651.411 77.2438 651.411 82.1398C651.411 84.0118 651.243 85.9318 650.907 87.8998H622.756C622.66 88.6438 622.612 89.3158 622.612 89.9158C622.612 93.4918 623.428 96.2278 625.06 98.1238C626.716 99.9958 628.731 100.932 631.107 100.932C633.339 100.932 635.535 100.2 637.695 98.7358C639.855 97.2718 641.535 95.1598 642.735 92.3998ZM623.8 82.9318H645.255C645.279 82.2598 645.291 81.7798 645.291 81.4918C645.291 78.2278 644.475 75.7318 642.843 74.0039C641.211 72.2519 639.111 71.3759 636.543 71.3759C633.759 71.3759 631.215 72.3359 628.911 74.2559C626.632 76.1758 624.928 79.0678 623.8 82.9318Z" fill="#CACACA"/>
<path fill-rule="evenodd" clip-rule="evenodd" d="M257.814 10.6299L453.199 206.025C467.35 220.17 467.35 243.316 453.199 257.472L257.814 452.862C243.659 467.002 220.513 467.002 206.363 452.862L10.9676 257.472C-3.17745 243.316 -3.17745 220.17 10.9676 206.025L206.363 10.6299C220.513 -3.51515 243.659 -3.51515 257.814 10.6299Z" fill="#40537C"/>
<path fill-rule="evenodd" clip-rule="evenodd" d="M64.9551 152.038L103.576 113.417H269.187C315.436 113.417 352.928 150.909 352.928 197.157C352.928 243.406 315.436 280.898 269.187 280.898H193.218C166.706 280.898 145.213 302.39 145.213 328.902V391.714L106.593 353.094V328.902C106.593 281.06 145.376 242.277 193.218 242.277H269.187C294.106 242.277 314.307 222.076 314.307 197.157C314.307 172.239 294.106 152.038 269.187 152.038H64.9551Z" fill="#DDDDDD"/>
</svg>
