<svg width="2006" height="465" viewBox="0 0 2006 465" fill="none" xmlns="http://www.w3.org/2000/svg">
<path d="M538.628 316.366V171.46H599.724C604.423 171.46 609.188 172.048 614.018 173.223C618.979 174.267 623.483 176.486 627.53 179.88C631.707 183.144 635.036 188.105 637.516 194.763C640.127 201.42 641.433 210.232 641.433 221.198C641.433 232.294 640.127 241.237 637.516 248.025C635.036 254.683 631.772 259.774 627.726 263.299C623.679 266.824 619.305 269.173 614.606 270.348C609.906 271.523 605.337 272.111 600.898 272.111C597.765 272.111 593.98 271.915 589.541 271.523C585.233 271.132 581.056 270.675 577.009 270.153C572.962 269.63 569.829 269.239 567.609 268.978V316.366H538.628ZM567.609 246.067H596.395C601.486 246.067 605.402 244.174 608.144 240.388C610.885 236.602 612.256 230.271 612.256 221.394C612.256 212.647 610.82 206.512 607.948 202.987C605.206 199.332 601.551 197.504 596.982 197.504H567.609V246.067ZM658.879 316.366V211.211H681.202L687.86 227.268C691.646 222.438 695.889 218.326 700.588 214.932C705.419 211.538 711.097 209.841 717.625 209.841C719.061 209.841 720.497 209.906 721.933 210.036C723.499 210.167 724.935 210.428 726.241 210.82V240.584C724.152 240.323 721.998 240.127 719.779 239.997C717.69 239.735 715.732 239.605 713.904 239.605C708.16 239.605 703.265 240.584 699.218 242.542C695.171 244.37 691.385 247.177 687.86 250.962V316.366H658.879ZM786.719 317.345C775.101 317.345 765.767 315.713 758.717 312.449C751.668 309.055 746.511 303.442 743.248 295.609C740.115 287.776 738.548 277.072 738.548 263.495C738.548 249.135 740.18 238.104 743.443 230.401C746.707 222.569 751.864 217.151 758.913 214.149C765.963 211.146 775.231 209.645 786.719 209.645C798.338 209.645 807.672 211.211 814.721 214.344C821.901 217.477 827.058 222.96 830.191 230.793C833.455 238.626 835.086 249.526 835.086 263.495C835.086 277.463 833.52 288.364 830.387 296.196C827.254 304.029 822.162 309.512 815.113 312.645C808.064 315.778 798.599 317.345 786.719 317.345ZM786.719 294.238C791.288 294.238 795.009 293.586 797.881 292.28C800.753 290.975 802.842 288.168 804.147 283.86C805.453 279.421 806.105 272.633 806.105 263.495C806.105 254.226 805.453 247.438 804.147 243.13C802.842 238.822 800.753 236.015 797.881 234.709C795.009 233.404 791.288 232.751 786.719 232.751C782.15 232.751 778.43 233.404 775.558 234.709C772.816 236.015 770.793 238.822 769.487 243.13C768.182 247.438 767.529 254.226 767.529 263.495C767.529 272.633 768.182 279.421 769.487 283.86C770.793 288.168 772.816 290.975 775.558 292.28C778.43 293.586 782.15 294.238 786.719 294.238ZM854.315 362.775V211.211H878.596L883.296 221.198C886.951 218.326 891.194 215.715 896.024 213.365C900.985 210.885 906.468 209.645 912.473 209.645C925.528 209.645 934.992 214.475 940.867 224.135C946.741 233.796 949.678 247.046 949.678 263.886C949.678 275.113 948.569 284.774 946.35 292.868C944.13 300.961 940.279 307.162 934.796 311.47C929.444 315.648 922.003 317.736 912.473 317.736C907.512 317.736 902.421 317.149 897.199 315.974C892.108 314.799 887.474 313.102 883.296 310.883V362.775H854.315ZM903.074 293.847C906.076 293.847 908.883 293.063 911.494 291.497C914.235 289.8 916.455 286.797 918.152 282.489C919.849 278.181 920.697 271.98 920.697 263.886C920.697 252.137 919 244.043 915.606 239.605C912.342 235.166 908.165 232.947 903.074 232.947C899.027 232.947 895.306 233.6 891.912 234.905C888.518 236.211 885.646 237.516 883.296 238.822V288.755C885.907 290.322 888.975 291.562 892.5 292.476C896.024 293.39 899.549 293.847 903.074 293.847ZM1013.12 317.345C1001.5 317.345 992.229 315.844 985.31 312.841C978.391 309.708 973.365 304.29 970.232 296.588C967.229 288.755 965.728 277.855 965.728 263.886C965.728 249.657 967.164 238.626 970.036 230.793C972.908 222.96 977.738 217.477 984.526 214.344C991.315 211.211 1000.52 209.645 1012.14 209.645C1022.45 209.645 1030.74 210.689 1037.01 212.778C1043.4 214.867 1047.97 218.522 1050.71 223.744C1053.59 228.965 1055.02 236.341 1055.02 245.871C1055.02 256.576 1051.95 263.952 1045.82 267.999C1039.68 272.045 1031.39 274.069 1020.95 274.069H994.513C994.644 279.421 995.427 283.664 996.863 286.797C998.299 289.93 1000.84 292.215 1004.5 293.651C1008.29 295.087 1013.7 295.805 1020.75 295.805H1051.5V312.841C1046.41 313.885 1040.79 314.93 1034.66 315.974C1028.65 316.888 1021.47 317.345 1013.12 317.345ZM994.122 256.837H1018.01C1021.93 256.837 1024.8 256.054 1026.63 254.487C1028.46 252.79 1029.37 249.983 1029.37 246.067C1029.37 240.323 1028 236.341 1025.26 234.122C1022.65 231.772 1018.27 230.597 1012.14 230.597C1005.48 230.597 1000.78 232.425 998.038 236.08C995.427 239.605 994.122 246.524 994.122 256.837ZM1074.04 316.366V211.211H1096.36L1103.02 227.268C1106.8 222.438 1111.05 218.326 1115.75 214.932C1120.58 211.538 1126.26 209.841 1132.78 209.841C1134.22 209.841 1135.65 209.906 1137.09 210.036C1138.66 210.167 1140.09 210.428 1141.4 210.82V240.584C1139.31 240.323 1137.16 240.127 1134.94 239.997C1132.85 239.735 1130.89 239.605 1129.06 239.605C1123.32 239.605 1118.42 240.584 1114.38 242.542C1110.33 244.37 1106.54 247.177 1103.02 250.962V316.366H1074.04ZM1188.56 316.366V197.504H1148.81V171.46H1257.49V197.504H1217.54V316.366H1188.56ZM1255.65 316.366V295.413L1305.19 234.514H1253.69V211.211H1338.87V232.164L1289.13 293.063H1338.87V316.366H1255.65ZM1360.19 316.562C1357.58 316.562 1356.28 315.256 1356.28 312.645V292.672C1356.28 289.93 1357.58 288.56 1360.19 288.56H1377.03C1379.91 288.56 1381.34 289.93 1381.34 292.672V312.645C1381.34 314.212 1380.88 315.256 1379.97 315.778C1379.19 316.3 1378.21 316.562 1377.03 316.562H1360.19ZM1443.69 317.541C1435.07 317.541 1427.43 315.974 1420.77 312.841C1414.25 309.708 1409.09 304.29 1405.3 296.588C1401.52 288.886 1399.63 278.116 1399.63 264.278C1399.63 249.918 1401.39 238.822 1404.91 230.989C1408.44 223.026 1413.53 217.477 1420.19 214.344C1426.84 211.211 1434.94 209.645 1444.47 209.645C1450.87 209.645 1456.94 210.036 1462.68 210.82C1468.55 211.472 1474.69 212.713 1481.09 214.54V231.185H1453.48C1447.47 231.185 1442.64 232.099 1438.99 233.926C1435.33 235.623 1432.65 238.887 1430.96 243.717C1429.39 248.417 1428.61 255.205 1428.61 264.082C1428.61 272.959 1429.39 279.682 1430.96 284.252C1432.65 288.69 1435.33 291.693 1438.99 293.259C1442.77 294.826 1447.73 295.609 1453.87 295.609H1482.65V312.058C1477.82 313.624 1471.82 314.93 1464.64 315.974C1457.46 317.018 1450.47 317.541 1443.69 317.541ZM1543.79 317.345C1532.18 317.345 1522.84 315.713 1515.79 312.449C1508.74 309.055 1503.59 303.442 1500.32 295.609C1497.19 287.776 1495.62 277.072 1495.62 263.495C1495.62 249.135 1497.25 238.104 1500.52 230.401C1503.78 222.569 1508.94 217.151 1515.99 214.149C1523.04 211.146 1532.31 209.645 1543.79 209.645C1555.41 209.645 1564.75 211.211 1571.8 214.344C1578.98 217.477 1584.13 222.96 1587.27 230.793C1590.53 238.626 1592.16 249.526 1592.16 263.495C1592.16 277.463 1590.6 288.364 1587.46 296.196C1584.33 304.029 1579.24 309.512 1572.19 312.645C1565.14 315.778 1555.67 317.345 1543.79 317.345ZM1543.79 294.238C1548.36 294.238 1552.08 293.586 1554.96 292.28C1557.83 290.975 1559.92 288.168 1561.22 283.86C1562.53 279.421 1563.18 272.633 1563.18 263.495C1563.18 254.226 1562.53 247.438 1561.22 243.13C1559.92 238.822 1557.83 236.015 1554.96 234.709C1552.08 233.404 1548.36 232.751 1543.79 232.751C1539.23 232.751 1535.5 233.404 1532.63 234.709C1529.89 236.015 1527.87 238.822 1526.56 243.13C1525.26 247.438 1524.6 254.226 1524.6 263.495C1524.6 272.633 1525.26 279.421 1526.56 283.86C1527.87 288.168 1529.89 290.975 1532.63 292.28C1535.5 293.586 1539.23 294.238 1543.79 294.238ZM1611.39 316.366V211.211H1635.28L1640.37 221.981C1644.94 218.587 1649.97 215.65 1655.45 213.169C1660.93 210.689 1667.59 209.449 1675.42 209.449C1682.08 209.449 1687.56 210.885 1691.87 213.757C1696.18 216.498 1699.51 220.023 1701.86 224.331C1704.86 222.112 1708.32 219.893 1712.24 217.673C1716.28 215.323 1720.59 213.365 1725.16 211.799C1729.73 210.232 1734.23 209.449 1738.67 209.449C1747.16 209.449 1753.82 211.081 1758.65 214.344C1763.48 217.477 1766.87 221.981 1768.83 227.856C1770.92 233.6 1771.96 240.388 1771.96 248.221V316.366H1742.98V250.767C1742.98 245.675 1741.61 241.889 1738.87 239.409C1736.13 236.798 1732.47 235.493 1727.9 235.493C1723.99 235.493 1720 236.341 1715.96 238.038C1712.04 239.605 1708.52 241.498 1705.38 243.717C1705.91 246.328 1706.17 248.874 1706.17 251.354V316.366H1677.19V250.767C1677.19 245.675 1675.81 241.889 1673.07 239.409C1670.33 236.798 1666.68 235.493 1662.11 235.493C1657.93 235.493 1654.01 236.211 1650.36 237.647C1646.83 239.083 1643.5 240.976 1640.37 243.325V316.366H1611.39Z" fill="#DDDDDD"/>
<path d="M542.836 106.142L552.592 59.3778H535.276L536.536 53.3658H578.08L576.82 59.3778H559.648L549.892 106.142H542.836ZM573.616 106.142L584.632 53.3658H591.148L586.936 73.6337C589.36 71.2817 591.616 69.6017 593.704 68.5937C595.792 67.5617 597.94 67.0457 600.148 67.0457C603.316 67.0457 605.776 67.8857 607.528 69.5657C609.28 71.2217 610.156 73.4177 610.156 76.1537C610.156 77.4977 609.772 79.9697 609.004 83.5697L604.288 106.142H597.772L602.632 82.9937C603.328 79.6337 603.676 77.5217 603.676 76.6577C603.676 75.4097 603.244 74.3897 602.38 73.5977C601.516 72.8057 600.268 72.4097 598.636 72.4097C596.284 72.4097 594.04 73.0337 591.904 74.2817C589.768 75.5057 588.088 77.1977 586.864 79.3577C585.664 81.4937 584.56 84.9497 583.552 89.7257L580.132 106.142H573.616ZM642.735 93.1456L649.071 93.7936C648.159 96.9376 646.059 99.9256 642.771 102.758C639.507 105.59 635.607 107.006 631.071 107.006C628.239 107.006 625.636 106.358 623.26 105.062C620.908 103.742 619.108 101.834 617.86 99.3376C616.636 96.8416 616.024 93.9976 616.024 90.8057C616.024 86.6297 616.984 82.5857 618.904 78.6737C620.848 74.7377 623.356 71.8217 626.428 69.9257C629.499 68.0057 632.823 67.0457 636.399 67.0457C640.959 67.0457 644.595 68.4617 647.307 71.2937C650.043 74.1257 651.411 77.9897 651.411 82.8857C651.411 84.7577 651.243 86.6777 650.907 88.6457H622.756C622.66 89.3897 622.612 90.0617 622.612 90.6617C622.612 94.2376 623.428 96.9736 625.06 98.8696C626.716 100.742 628.731 101.678 631.107 101.678C633.339 101.678 635.535 100.946 637.695 99.4816C639.855 98.0176 641.535 95.9056 642.735 93.1456ZM623.8 83.6777H645.255C645.279 83.0057 645.291 82.5257 645.291 82.2377C645.291 78.9737 644.475 76.4777 642.843 74.7497C641.211 72.9977 639.111 72.1217 636.543 72.1217C633.759 72.1217 631.215 73.0817 628.911 75.0017C626.632 76.9217 624.928 79.8137 623.8 83.6777Z" fill="#CACACA"/>
<path fill-rule="evenodd" clip-rule="evenodd" d="M257.814 11.3758L453.199 206.771C467.349 220.916 467.349 244.062 453.199 258.217L257.814 453.608C243.659 467.748 220.513 467.748 206.363 453.608L10.9676 258.217C-3.17745 244.062 -3.17745 220.916 10.9676 206.771L206.363 11.3758C220.513 -2.76929 243.659 -2.76929 257.814 11.3758Z" fill="#DDDDDD"/>
<path fill-rule="evenodd" clip-rule="evenodd" d="M64.9552 152.784L103.576 114.163H269.188C315.436 114.163 352.928 151.655 352.928 197.904C352.928 244.152 315.436 281.644 269.188 281.644H193.218C166.706 281.644 145.213 303.136 145.213 329.648V392.46L106.593 353.84V329.648C106.593 281.807 145.376 243.023 193.218 243.023H269.188C294.106 243.023 314.307 222.822 314.307 197.904C314.307 172.985 294.106 152.784 269.188 152.784H64.9552Z" fill="#40537C"/>
</svg>
